<?xml version="1.0" encoding="utf-8"?>
<!-- Generator: Adobe Illustrator 28.2.0, SVG Export Plug-In . SVG Version: 6.00 Build 0)  -->
<svg version="1.1" id="Layer_1" xmlns="http://www.w3.org/2000/svg" xmlns:xlink="http://www.w3.org/1999/xlink" x="0px" y="0px"
	 viewBox="0 0 889 200" style="enable-background:new 0 0 889 200;" xml:space="preserve">
<style type="text/css">
	.st0{fill:#4B5563;}
</style>
<g>
	<path class="st0" d="M290.5,15.9h26.8l59.3,156h-31.2L331,133.1h-54.5L262.2,172H231L290.5,15.9z M325.5,111.8l-21.5-61.3
		l-22.4,61.3H325.5z"/>
	<path class="st0" d="M390.8,11.6h29.5v123.5c0,4.3,1,7.5,3.1,9.9c2,2.3,5,3.5,8.8,3.5c1.8,0,3.7-0.3,5.8-0.9c2.1-0.6,4.1-1.3,6-2.2
		l4,22.4c-4,1.9-8.6,3.4-13.8,4.4s-10,1.5-14.3,1.5c-9.2,0-16.4-2.5-21.4-7.4c-5.1-4.9-7.6-11.9-7.6-21V11.6z"/>
	<path class="st0" d="M526.1,174.2c-8.8,0-16.6-2-23.5-5.9c-6.9-4-12.3-9.4-16.3-16.3v20h-25.7V11.6h29.5V77
		c4.1-7,9.5-12.5,16.2-16.4c6.7-3.9,14.5-5.8,23.4-5.8c7.5,0,14.3,1.6,20.4,4.8c6.2,3.2,11.5,7.5,15.9,13
		c4.5,5.4,7.9,11.8,10.3,19.1c2.4,7.3,3.6,15,3.6,23.1c0,8.4-1.4,16.1-4.1,23.3c-2.7,7.2-6.5,13.4-11.3,18.8
		c-4.8,5.3-10.5,9.6-17.1,12.6C540.9,172.7,533.8,174.2,526.1,174.2z M518,149.1c4.7,0,9-0.9,13-2.7c4-1.8,7.3-4.3,10.1-7.4
		c2.8-3.1,4.9-6.7,6.5-10.8c1.5-4.1,2.3-8.5,2.3-13.2c0-4.7-0.7-9.2-2.2-13.4c-1.5-4.2-3.6-8-6.3-11.2c-2.7-3.2-5.9-5.8-9.6-7.7
		c-3.7-1.9-7.7-2.9-12.1-2.9c-6.6,0-12.5,2.2-17.7,6.5c-5.2,4.3-9.2,9.6-12,15.9v27.5c1,2.9,2.5,5.6,4.5,7.9c2,2.3,4.2,4.4,6.7,6
		c2.5,1.7,5.2,3,8.1,4C512.4,148.7,515.2,149.1,518,149.1z"/>
	<path class="st0" d="M653.4,174.2c-9.2,0-17.6-1.6-25.1-4.7c-7.5-3.1-13.8-7.4-19.1-12.9c-5.3-5.4-9.3-11.7-12.2-18.9
		c-2.9-7.2-4.3-14.7-4.3-22.6c0-8.2,1.4-15.9,4.2-23.2c2.8-7.3,6.8-13.6,12.1-19.1c5.3-5.5,11.7-9.9,19.2-13.1
		c7.5-3.2,16-4.8,25.4-4.8c9.4,0,17.8,1.6,25.2,4.8c7.4,3.2,13.7,7.5,18.9,13c5.2,5.4,9.2,11.7,11.9,18.9c2.7,7.2,4.1,14.7,4.1,22.4
		c0,1.9,0,3.7-0.1,5.5c-0.1,1.8-0.3,3.2-0.5,4.4h-89c0.4,4.5,1.5,8.6,3.3,12.1c1.8,3.5,4,6.5,6.8,9c2.8,2.5,5.9,4.4,9.5,5.7
		c3.5,1.3,7.2,2,11,2c5.9,0,11.4-1.4,16.6-4.3c5.2-2.9,8.8-6.6,10.7-11.3l25.3,7c-4.3,8.8-11,16-20.3,21.6
		C677.4,171.4,666.3,174.2,653.4,174.2z M683.3,104.7c-0.7-8.6-3.9-15.6-9.6-20.8c-5.6-5.2-12.5-7.8-20.5-7.8c-4,0-7.7,0.7-11.1,2.1
		c-3.4,1.4-6.5,3.3-9.1,5.8c-2.6,2.5-4.8,5.5-6.5,9c-1.7,3.5-2.7,7.4-3,11.6H683.3z"/>
	<path class="st0" d="M800.2,82.3c-8.9,0.1-16.9,1.9-24,5.2c-7,3.3-12.1,8.2-15.2,14.8V172h-29.5V56.8h27v24.6
		c2.1-4,4.5-7.5,7.3-10.7c2.8-3.1,5.8-5.9,9-8.2c3.2-2.3,6.5-4.1,9.8-5.4c3.3-1.2,6.5-1.9,9.6-1.9c1.6,0,2.8,0,3.6,0
		c0.8,0,1.6,0.1,2.3,0.2V82.3z"/>
	<path class="st0" d="M885.7,166.1c-4,1.8-8.8,3.5-14.5,5.3c-5.7,1.8-11.7,2.6-18,2.6c-4.1,0-8-0.5-11.5-1.5c-3.6-1-6.7-2.7-9.5-4.9
		c-2.7-2.3-4.9-5.2-6.5-8.8c-1.6-3.6-2.4-7.9-2.4-13.1V79.5h-15.2V56.8h15.2V19.5h29.5v37.4h24.2v22.6h-24.2v56.3
		c0,4.1,1.1,7,3.2,8.7c2.1,1.7,4.7,2.5,7.8,2.5c3.1,0,6.1-0.5,9-1.5c2.9-1,5.3-1.9,7-2.6L885.7,166.1z"/>
</g>
<path class="st0" d="M105.4,194.8c-0.7,0.4-1.4,0.6-2.2,0.6s-1.5-0.2-2.2-0.6L33.4,156l67.6-38.8c0.7-0.4,1.4-0.6,2.2-0.6
	s1.5,0.2,2.2,0.6L173,156L105.4,194.8z M189.4,143.2c5.8-3.3,9.2-11.7,7.7-20.3c-0.9-5.7-4.1-10.3-8.1-12.6l-76.7-44
	c-2.9-1.7-6-2.5-9.1-2.5c-3.1,0-6.3,0.8-9.1,2.5l-77,44.2c-4.9,2.8-8.1,9.3-8.1,16.4c0,7.1,3.2,13.6,8.1,16.4l11.5,6.6L51,136.9
	l-17.6-10.1L101.1,88c0.7-0.4,1.4-0.6,2.2-0.6s1.5,0.2,2.2,0.6l67.6,38.8l-17.6,10.1l22.4,12.9L189.4,143.2z M189.4,86.1
	c5.8-3.3,9.2-11.7,7.7-20.3c-0.9-5.7-4.1-10.3-8.1-12.6l-76.7-44c-2.9-1.7-6-2.5-9.1-2.5c-3.1,0-6.3,0.8-9.1,2.5l-77,44.2
	C12.2,56.2,9,62.6,9,69.7c0,7.1,3.2,13.6,8.1,16.4l11.5,6.6L51,79.8L33.4,69.7l67.6-38.8c0.7-0.4,1.4-0.6,2.2-0.6s1.5,0.2,2.2,0.6
	L173,69.7l-17.6,10.1l22.4,12.9L189.4,86.1z"/>
</svg>
